<svg width="20" height="24" viewBox="0 0 20 24" fill="none" xmlns="http://www.w3.org/2000/svg">
<path d="M3.5 20V11H2V6.5H5.83333C5.76389 6.34722 5.71181 6.18795 5.67708 6.02219C5.64236 5.85641 5.625 5.68235 5.625 5.5C5.625 4.80556 5.86806 4.21528 6.35417 3.72917C6.84028 3.24306 7.43056 3 8.125 3C8.49008 3 8.83135 3.07639 9.14881 3.22917C9.46627 3.38194 9.75 3.59028 10 3.85417C10.2361 3.59028 10.5174 3.38194 10.8438 3.22917C11.1701 3.07639 11.5139 3 11.875 3C12.5694 3 13.1597 3.24306 13.6458 3.72917C14.1319 4.21528 14.375 4.80556 14.375 5.5C14.375 5.66667 14.3507 5.83333 14.3021 6C14.2535 6.16667 14.2083 6.33333 14.1667 6.5H18V11H16.5V20H3.5ZM11.875 4.5C11.5917 4.5 11.3542 4.59583 11.1625 4.7875C10.9708 4.97917 10.875 5.21667 10.875 5.5C10.875 5.78333 10.9708 6.02083 11.1625 6.2125C11.3542 6.40417 11.5917 6.5 11.875 6.5C12.1583 6.5 12.3958 6.40417 12.5875 6.2125C12.7792 6.02083 12.875 5.78333 12.875 5.5C12.875 5.21667 12.7792 4.97917 12.5875 4.7875C12.3958 4.59583 12.1583 4.5 11.875 4.5ZM7.125 5.5C7.125 5.78333 7.22083 6.02083 7.4125 6.2125C7.60417 6.40417 7.84167 6.5 8.125 6.5C8.40833 6.5 8.64583 6.40417 8.8375 6.2125C9.02917 6.02083 9.125 5.78333 9.125 5.5C9.125 5.21667 9.02917 4.97917 8.8375 4.7875C8.64583 4.59583 8.40833 4.5 8.125 4.5C7.84167 4.5 7.60417 4.59583 7.4125 4.7875C7.22083 4.97917 7.125 5.21667 7.125 5.5ZM3.5 8V9.5H9.25V8H3.5ZM9.25 18.5V11H5V18.5H9.25ZM10.75 18.5H15V11H10.75V18.5ZM16.5 9.5V8H10.75V9.5H16.5Z" fill="#646464"/>
</svg>
