<svg width="100" height="25" viewBox="0 0 100 25" fill="none" xmlns="http://www.w3.org/2000/svg">
<g clip-path="url(#paypal-logo)">
<path d="M38.0426 10.6434C37.7389 12.6289 36.2294 12.6289 34.7562 12.6289H33.9198L34.5068 8.9209C34.5222 8.81198 34.5767 8.71238 34.6601 8.64065C34.7435 8.56893 34.8502 8.52998 34.9601 8.53106H35.3432C36.3404 8.53106 37.2833 8.53106 37.7706 9.09995C38.0539 9.43992 38.1423 9.94082 38.0426 10.6434ZM37.4034 5.45996H31.8596C31.6764 5.46025 31.4993 5.52558 31.3598 5.6443C31.2204 5.76302 31.1276 5.92741 31.098 6.10818L28.861 20.2987C28.8493 20.3645 28.8523 20.4321 28.8698 20.4966C28.8872 20.5611 28.9188 20.621 28.9621 20.6719C29.0054 20.7228 29.0595 20.7635 29.1204 20.791C29.1812 20.8186 29.2475 20.8324 29.3143 20.8313H31.957C32.1401 20.8314 32.3171 20.7662 32.4563 20.6473C32.5955 20.5285 32.6877 20.3639 32.7163 20.1831L33.3192 16.355C33.3478 16.174 33.4399 16.0091 33.579 15.8899C33.7182 15.7707 33.8952 15.705 34.0785 15.7045H35.8305C39.4773 15.7045 41.5806 13.9412 42.1291 10.4462C42.3761 8.91637 42.1404 7.72646 41.4242 6.87425C40.64 5.94953 39.2438 5.45996 37.3921 5.45996H37.4034Z" fill="#253B80"/>
<path d="M50.2417 15.7363C50.1403 16.4513 49.7798 17.1042 49.2286 17.5709C48.6775 18.0376 47.9742 18.2857 47.2522 18.2679C46.4816 18.2679 45.8674 18.0209 45.473 17.5517C45.2714 17.2911 45.1295 16.9893 45.0574 16.6677C44.9854 16.3462 44.9849 16.0127 45.056 15.6909C45.1565 14.9794 45.5121 14.3285 46.0566 13.8595C46.6011 13.3905 47.2974 13.1352 48.016 13.1411C48.3456 13.1234 48.6751 13.1788 48.9807 13.3035C49.2863 13.4281 49.5606 13.6188 49.7839 13.8619C49.9918 14.1223 50.1404 14.4249 50.2195 14.7486C50.2986 15.0723 50.3061 15.4093 50.2417 15.7363V15.7363ZM53.9361 10.58H51.2843C51.1747 10.5788 51.0683 10.6175 50.9849 10.6887C50.9016 10.76 50.8469 10.8591 50.831 10.9676L50.7154 11.7087L50.5296 11.4413C49.9561 10.6072 48.6756 10.3307 47.3995 10.3307C44.4712 10.3307 41.9599 12.5473 41.4817 15.6592C41.2301 17.2118 41.5905 18.6941 42.4699 19.7389C43.2768 20.6908 44.4327 21.0875 45.8085 21.0875C46.4905 21.0943 47.1668 20.9633 47.797 20.7023C48.4271 20.4414 48.9981 20.0559 49.4756 19.5689L49.3578 20.3055C49.3457 20.3715 49.3484 20.4393 49.3657 20.5041C49.383 20.5689 49.4145 20.6291 49.4578 20.6802C49.5012 20.7314 49.5554 20.7723 49.6165 20.8C49.6776 20.8277 49.744 20.8415 49.8111 20.8404H52.2C52.3833 20.8404 52.5606 20.7749 52.6999 20.6556C52.8391 20.5363 52.9311 20.3711 52.9592 20.1899L54.3917 11.124C54.4053 11.0571 54.4037 10.9881 54.387 10.922C54.3703 10.8559 54.3389 10.7944 54.2951 10.7421C54.2513 10.6898 54.1963 10.6481 54.1341 10.62C54.072 10.592 54.0043 10.5783 53.9361 10.58V10.58Z" fill="#253B80"/>
<path d="M68.0472 10.58H65.3863C65.2608 10.5794 65.1371 10.6097 65.026 10.6682C64.915 10.7267 64.82 10.8116 64.7494 10.9154L61.0754 16.3255L59.5184 11.1285C59.471 10.9699 59.3738 10.8309 59.241 10.732C59.1083 10.6332 58.9472 10.5799 58.7818 10.58H56.1753C56.1013 10.578 56.0279 10.5942 55.9616 10.6271C55.8953 10.66 55.8381 10.7087 55.7949 10.7688C55.7518 10.829 55.724 10.8988 55.7141 10.9721C55.7041 11.0455 55.7123 11.1202 55.7379 11.1896L58.6707 19.8023L55.9124 23.6939C55.8597 23.7621 55.8277 23.844 55.8199 23.9298C55.8121 24.0156 55.8289 24.1019 55.8684 24.1785C55.9079 24.255 55.9684 24.3188 56.0428 24.3622C56.1172 24.4057 56.2025 24.427 56.2886 24.4237H58.9495C59.0737 24.4234 59.1961 24.3932 59.3061 24.3356C59.4162 24.278 59.5108 24.1947 59.5818 24.0928L68.428 11.3007C68.4782 11.2321 68.5081 11.1508 68.5142 11.066C68.5204 10.9812 68.5027 10.8964 68.463 10.8213C68.4232 10.7461 68.3632 10.6836 68.2897 10.641C68.2162 10.5983 68.1321 10.5772 68.0472 10.58Z" fill="#253B80"/>
<path d="M77.5029 10.6434C77.2015 12.6289 75.6897 12.6289 74.2165 12.6289H73.3824L73.9695 8.9209C73.9849 8.81198 74.0393 8.71238 74.1227 8.64065C74.2061 8.56893 74.3128 8.52998 74.4228 8.53106H74.8058C75.8053 8.53106 76.7482 8.53106 77.2355 9.09995C77.5256 9.43992 77.614 9.94082 77.5029 10.6434ZM76.8638 5.45996H71.3313C71.1484 5.46033 70.9716 5.52574 70.8325 5.64449C70.6934 5.76325 70.601 5.9276 70.572 6.10818L68.3327 20.2987C68.321 20.3645 68.324 20.4321 68.3415 20.4966C68.3589 20.5611 68.3905 20.621 68.4338 20.6719C68.4771 20.7228 68.5311 20.7635 68.592 20.791C68.6529 20.8186 68.7192 20.8324 68.786 20.8313H71.6259C71.7538 20.8313 71.8775 20.7856 71.9747 20.7025C72.0719 20.6194 72.1363 20.5044 72.1563 20.378L72.7909 16.355C72.8194 16.174 72.9116 16.0091 73.0507 15.8899C73.1899 15.7707 73.3669 15.705 73.5502 15.7045H75.3022C78.9467 15.7045 81.05 13.9412 81.6007 10.4462C81.8501 8.91637 81.6007 7.72646 80.8936 6.87425C80.1117 5.94953 78.7178 5.45996 76.8638 5.45996V5.45996Z" fill="#179BD7"/>
<path d="M89.7192 15.7363C89.6178 16.4513 89.2573 17.1042 88.7062 17.5709C88.155 18.0376 87.4517 18.2857 86.7297 18.2679C85.9614 18.2679 85.3449 18.0209 84.9483 17.5517C84.7481 17.2903 84.6074 16.9884 84.5357 16.6671C84.4641 16.3457 84.4633 16.0126 84.5335 15.6909C84.6347 14.978 84.9917 14.3262 85.538 13.857C86.0843 13.3879 86.7826 13.1334 87.5026 13.1411C87.8322 13.1234 88.1616 13.1788 88.4673 13.3035C88.7729 13.4281 89.0472 13.6188 89.2705 13.8619C89.4772 14.1228 89.6245 14.4257 89.702 14.7495C89.7795 15.0732 89.7854 15.41 89.7192 15.7363V15.7363ZM93.4114 10.58H90.7573C90.6476 10.5788 90.5413 10.6175 90.4579 10.6887C90.3746 10.76 90.3199 10.8591 90.304 10.9676L90.1884 11.7087L90.0003 11.4413C89.4269 10.6072 88.1486 10.3307 86.8725 10.3307C83.9442 10.3307 81.4443 12.5473 80.957 15.6592C80.7031 17.2118 81.0635 18.6941 81.9429 19.7389C82.752 20.6908 83.9057 21.0875 85.2815 21.0875C85.9635 21.0943 86.6398 20.9633 87.27 20.7023C87.9001 20.4414 88.4711 20.0559 88.9486 19.5689L88.8308 20.3055C88.8187 20.3715 88.8214 20.4393 88.8387 20.5041C88.856 20.5689 88.8875 20.6291 88.9308 20.6802C88.9742 20.7314 89.0284 20.7723 89.0895 20.8C89.1505 20.8277 89.217 20.8415 89.2841 20.8404H91.6707C91.854 20.8404 92.0314 20.7749 92.1706 20.6556C92.3098 20.5363 92.4018 20.3711 92.43 20.1899L93.8624 11.124C93.8761 11.057 93.8745 10.9877 93.8576 10.9214C93.8408 10.8551 93.8091 10.7935 93.7651 10.7412C93.7211 10.6889 93.6657 10.6472 93.6033 10.6193C93.5409 10.5914 93.4729 10.5779 93.4046 10.58H93.4114Z" fill="#179BD7"/>
<path d="M96.53 5.86119L94.2521 20.2988C94.2404 20.3646 94.2434 20.4321 94.2609 20.4967C94.2784 20.5612 94.3099 20.621 94.3532 20.6719C94.3965 20.7228 94.4506 20.7635 94.5115 20.7911C94.5724 20.8187 94.6386 20.8324 94.7054 20.8314H96.9901C97.1731 20.8315 97.3501 20.7662 97.4893 20.6474C97.6285 20.5286 97.7207 20.3639 97.7493 20.1832L99.9886 5.99264C100 5.92684 99.9973 5.85925 99.9799 5.79474C99.9624 5.73022 99.9309 5.67037 99.8875 5.61947C99.8442 5.56857 99.7902 5.52788 99.7293 5.50031C99.6684 5.47274 99.6022 5.45898 99.5353 5.46002H96.9833C96.8715 5.45927 96.7635 5.49981 96.6798 5.57385C96.5962 5.64789 96.5428 5.75021 96.53 5.86119Z" fill="#179BD7"/>
<path d="M5.87917 23.5897L6.31207 20.9016L5.36921 20.879H0.858887L3.98665 1.04486C3.99852 0.984576 4.02952 0.929732 4.07504 0.888468C4.1219 0.848789 4.18136 0.827093 4.24276 0.827272H11.831C14.3513 0.827272 16.0897 1.3531 16.9986 2.38662C17.4003 2.82646 17.6849 3.3604 17.8259 3.93917C17.9645 4.64562 17.9645 5.37229 17.8259 6.07874V6.13993V6.68616L18.252 6.92868C18.5768 7.09327 18.8687 7.31605 19.1132 7.58596C19.4919 8.03103 19.7349 8.57535 19.8136 9.15437C19.9103 9.91001 19.8765 10.6766 19.7139 11.4209C19.5533 12.3297 19.2366 13.2039 18.7778 14.0047C18.4039 14.6409 17.9014 15.192 17.3023 15.6229C16.6997 16.0438 16.0253 16.351 15.3123 16.5295C14.4967 16.7297 13.659 16.8257 12.8192 16.8151H12.2344C11.8111 16.8157 11.4019 16.9671 11.08 17.242C10.7581 17.517 10.5447 17.8975 10.4779 18.3155L10.4326 18.5581L9.68462 23.295L9.65062 23.4696C9.65026 23.4884 9.64605 23.5069 9.63825 23.5241C9.63046 23.5412 9.61924 23.5566 9.60529 23.5693C9.58319 23.5882 9.55507 23.5987 9.52596 23.5987L5.87917 23.5897Z" fill="#253B80"/>
<path d="M18.6509 6.20337C18.6283 6.34842 18.6011 6.49575 18.5739 6.65667C17.5721 11.788 14.1474 13.5672 9.77307 13.5672H7.54737C7.29041 13.5665 7.0416 13.6574 6.84556 13.8235C6.64952 13.9897 6.51907 14.2202 6.47759 14.4738L5.34434 21.7039L5.0157 23.7664C5.00293 23.8476 5.0079 23.9306 5.03028 24.0097C5.05266 24.0888 5.09191 24.1621 5.14532 24.2246C5.19874 24.287 5.26506 24.3372 5.33972 24.3716C5.41438 24.4059 5.4956 24.4237 5.57779 24.4237H9.52602C9.75231 24.4239 9.97128 24.3435 10.1436 24.1969C10.316 24.0503 10.4305 23.847 10.4666 23.6236L10.5051 23.4219L11.2486 18.7031L11.2962 18.4447C11.3322 18.2219 11.4465 18.0193 11.6184 17.8731C11.7904 17.7269 12.0088 17.6467 12.2345 17.6469H12.826C16.6519 17.6469 19.6482 16.0921 20.5321 11.5976C20.897 9.7187 20.7089 8.15029 19.7411 7.04877C19.4329 6.70223 19.0633 6.41561 18.6509 6.20337V6.20337Z" fill="#179BD7"/>
<path d="M17.6038 5.78636C17.4496 5.74103 17.2933 5.70023 17.1301 5.66397C16.9669 5.62771 16.8014 5.59598 16.6292 5.56878C15.9798 5.46894 15.3234 5.42119 14.6664 5.42599H8.71684C8.57492 5.42636 8.43483 5.4581 8.3066 5.51891C8.16771 5.58526 8.04716 5.6846 7.9555 5.80826C7.86384 5.93192 7.80386 6.07614 7.78078 6.22833L6.5138 14.2472L6.47754 14.4738C6.51902 14.2202 6.64947 13.9897 6.84551 13.8236C7.04155 13.6574 7.29036 13.5666 7.54732 13.5672H9.77302C14.1474 13.5672 17.572 11.7903 18.5738 6.65216C18.6033 6.50031 18.6282 6.35298 18.6509 6.19886C18.3867 6.06076 18.1115 5.94478 17.8281 5.85209L17.6038 5.78636Z" fill="#222D65"/>
<path d="M7.78095 6.22833C7.81562 6.00512 7.92908 5.8017 8.1008 5.65493C8.27251 5.50816 8.49112 5.42775 8.71701 5.42826H14.6666C15.3236 5.42346 15.9799 5.47121 16.6293 5.57105C16.8016 5.59825 16.9693 5.62998 17.1302 5.66398C17.2912 5.69797 17.4498 5.74104 17.6039 5.78636L17.8306 5.85663C18.1139 5.94931 18.3891 6.0653 18.6533 6.2034C18.9525 4.30408 18.6533 3.01217 17.6243 1.8404C16.4911 0.550762 14.4512 4.69516e-06 11.8357 4.69516e-06H4.24295C3.98572 -0.000752266 3.73661 0.090042 3.54019 0.256144C3.34378 0.422246 3.21287 0.652817 3.1709 0.906602L0.00913579 20.956C-0.00515114 21.0484 0.000564821 21.1427 0.0258973 21.2327C0.0512299 21.3227 0.0955881 21.4062 0.155972 21.4775C0.216355 21.5488 0.291355 21.6064 0.3759 21.6462C0.460445 21.6861 0.552562 21.7073 0.646021 21.7085H5.33766L6.51398 14.2472L7.78095 6.22833Z" fill="#253B80"/>
</g>
<defs>
<clipPath id="paypal-logo">
<rect width="100" height="24.4192" fill="white"/>
</clipPath>
</defs>
</svg>
